<svg width="72" height="73" viewBox="0 0 72 73" fill="none" xmlns="http://www.w3.org/2000/svg">
<circle cx="36" cy="36.5" r="32.5" stroke="white" stroke-width="7"/>
<path d="M35.7983 21.62C38.5716 21.62 40.7983 22.38 42.4783 23.9C44.1849 25.3933 45.0383 27.46 45.0383 30.1C45.0383 32.7133 44.1983 34.7133 42.5183 36.1C40.8383 37.46 38.6116 38.14 35.8383 38.14L35.6783 41.22H30.7583L30.5583 34.42H32.3583C34.6783 34.42 36.4649 34.1133 37.7183 33.5C38.9716 32.8867 39.5983 31.7667 39.5983 30.14C39.5983 28.9667 39.2516 28.0333 38.5583 27.34C37.8916 26.6467 36.9716 26.3 35.7983 26.3C34.5716 26.3 33.6116 26.6333 32.9183 27.3C32.2516 27.9667 31.9183 28.8867 31.9183 30.06H26.6383C26.6116 28.4333 26.9583 26.98 27.6783 25.7C28.3983 24.42 29.4516 23.42 30.8383 22.7C32.2516 21.98 33.9049 21.62 35.7983 21.62ZM33.1983 50.78C32.1849 50.78 31.3449 50.4733 30.6783 49.86C30.0383 49.22 29.7183 48.4333 29.7183 47.5C29.7183 46.5667 30.0383 45.7933 30.6783 45.18C31.3449 44.54 32.1849 44.22 33.1983 44.22C34.1849 44.22 34.9983 44.54 35.6383 45.18C36.2783 45.7933 36.5983 46.5667 36.5983 47.5C36.5983 48.4333 36.2783 49.22 35.6383 49.86C34.9983 50.4733 34.1849 50.78 33.1983 50.78Z" fill="white"/>
</svg>
